# xmcd
#
# Track frame offsets:
#	150
#	13015
#	34097
#	47156
#	65751
#	78622
#	92818
#	111631
#	127019
#	141568
#	157497
#	175840
#	191572
#	208602
#	223312
#	243052
#
# Disc length: 3309 seconds
# Revision: 0
# Processed by: cddbd v1.5.2PL0 Copyright (c) Steve Scherf et al.
# Submitted via: dBpowerAMP V12.0
#
DISCID=fe0ceb10
DTITLE=Carolyn Martin - A Platter of Brownies: The Music of Milton Brown
DYEAR=2012
DGENRE=Western Swing
TTITLE0=Right Or Wrong
TTITLE1=Sittin' On Top Of The World
TTITLE2=Keep Knockin' But You Can't Come In
TTITLE3=Some Of These Days
TTITLE4=Who's Sorry Now
TTITLE5=There'll Be Some Changes Made
TTITLE6=In The Shade Of The Old Apple Tree
TTITLE7=Chinatown My Chinatown
TTITLE8=Four Or Five Times
TTITLE9=Sweet Georgia Brown
TTITLE10=I'm Confessin' (That I Love You)
TTITLE11=Down By The Ohio
TTITLE12=The Waltz You Saved For Me
TTITLE13=Take It Slow And Easy
TTITLE14=Wabash Blues
TTITLE15=Musical Brownies Theme
EXTD=
EXTT0=
EXTT1=
EXTT2=
EXTT3=
EXTT4=
EXTT5=
EXTT6=
EXTT7=
EXTT8=
EXTT9=
EXTT10=
EXTT11=
EXTT12=
EXTT13=
EXTT14=
EXTT15=
PLAYORDER=
